<svg xmlns="http://www.w3.org/2000/svg" width="50" height="50" fill="none"><g fill="#fff" clip-path="url(#a)"><path d="M38.774 20.63h-.026c-1.035-.034-2.105-.368-3.237-.721-2.089-.653-4.456-1.392-7.128-.314a.816.816 0 0 1-1.108-.748V11.3c0-.214.084-.418.235-.57 4.125-4.131 7.854-1.756 11.46.54 2.638 1.68 5.366 3.418 8.493 2.96.63-.09 1.127.589.837 1.163-.647 1.279-1.594 2.396-3.841 2.364.4.495.898 1.376-.042 1.685-1.418.467-2.727.06-3.984-.555.122.256.225.537.225.847 0 .932-1.237.896-1.884.896m-7.572-3.198c1.79 0 3.396.502 4.79.937.979.306 1.906.595 2.7.643-.24-.525-.443-1.24.022-2.005.29-.476.837-.444 1.257-.19.927.51 1.773.976 2.58 1.144l-.63-.78c-.473-.585.087-1.467.816-1.29 1.582.38 2.5.299 3.08.004-2.91-.206-5.437-1.815-7.713-3.265-3.77-2.402-6.266-3.75-9.216-.99v6.089a9 9 0 0 1 2.314-.297M11.2 20.612c-.487 0-1.217-.025-1.596-.37-.399-.363-.268-.938-.072-1.37-1.231.622-2.565 1.015-3.987.468-.894-.343-.4-1.183-.005-1.672-2.247.031-3.193-1.085-3.84-2.364-.29-.571.205-1.257.837-1.162 3.077.454 5.78-1.271 8.394-2.94 3.621-2.311 7.367-4.702 11.555-.564.153.152.239.358.239.574v7.546c0 .563-.594.96-1.115.746-2.583-1.069-4.814-.347-6.97.352-1.192.385-2.337.756-3.44.756m.086-3.693c.545.762.241 1.548-.013 2.079.832-.017 1.798-.33 2.87-.677 1.94-.628 4.297-1.392 6.97-.686v-6.08c-3.007-2.775-5.52-1.415-9.315 1.006C9.546 14 7.045 15.594 4.18 15.805c.58.296 1.498.379 3.083-.003.728-.177 1.292.703.816 1.29l-.688.852c.812-.141 1.697-.638 2.789-1.298.13-.078.758-.215 1.107.273"/><path d="M33.704 32.754c-.746-2.573-3.781-3.52-5.595-4.086l-.345-.109a11 11 0 0 0-1.933-.43V9.364c2.244-.381 3.96-2.317 3.96-4.646C29.79 2.117 27.651 0 25.024 0s-4.767 2.117-4.767 4.718c0 2.33 1.715 4.265 3.96 4.646v18.649a28 28 0 0 0-2.02.069c-1.762.107-3.153.193-4.483-.828-.634-.488-1.703-1.52-1.73-2.968-.031-1.663 1.376-2.846 1.659-3.066a.807.807 0 0 0-.992-1.272c-.546.426-2.324 2-2.28 4.368.04 2.123 1.496 3.553 2.36 4.217 1.809 1.388 3.633 1.277 5.564 1.159a26 26 0 0 1 1.922-.066v6.631c-.519-.007-1.008.021-1.47.05-1.24.075-2.135.13-3.003-.536-.414-.319-1.111-.99-1.129-1.91-.02-1.061.896-1.83 1.08-1.973a.807.807 0 0 0-.992-1.272c-.407.317-1.733 1.492-1.7 3.274.03 1.596 1.114 2.664 1.758 3.16 1.347 1.033 2.738.948 4.085.866.447-.028.9-.053 1.37-.045v5.664c-.371-.007-.715.012-1.027.031-.867.052-1.342.063-1.817-.302-.191-.146-.636-.541-.645-1.061-.011-.59.55-1.044.613-1.094a.807.807 0 0 0-.99-1.273c-.297.23-1.26 1.085-1.236 2.397.022 1.176.81 1.953 1.276 2.311.976.75 1.953.69 2.898.632.303-.019.61-.036.93-.029v4.047a.807.807 0 0 0 1.612 0V45.46c.627.2 1.493.516 1.65 1.056.117.407-.156.904-.33 1.164-.573.857.762 1.763 1.34.896.578-.864.764-1.731.539-2.509-.415-1.429-2.039-1.935-2.911-2.208l-.16-.05c-.043-.014-.085-.023-.128-.036v-5.707q.217.053.442.124l.251.079c1.016.317 2.716.847 3.037 1.953.212.73-.181 1.538-.548 2.087-.573.858.762 1.763 1.341.897.8-1.196 1.06-2.383.756-3.433-.562-1.938-2.78-2.63-4.106-3.044l-.242-.076a8 8 0 0 0-.932-.234v-6.664c.464.074.943.18 1.443.34l.355.112c1.504.469 4.022 1.255 4.527 2.996.337 1.159-.26 2.401-.82 3.24-.573.856.762 1.762 1.341.895 1.076-1.61 1.431-3.195 1.028-4.585.403 1.39-.746-2.573 0 0M21.871 4.718c0-1.712 1.415-3.105 3.154-3.105s3.152 1.393 3.152 3.105-1.414 3.106-3.152 3.106S21.87 6.43 21.87 4.718"/><path d="M32.438 28.44c-.88 0-1.101-1.267-.275-1.565 1.24-.448 2.052-1.487 2.073-2.646.019-1.1-.702-2.136-1.836-2.64a.807.807 0 1 1 .654-1.474c1.727.767 2.824 2.392 2.794 4.141-.032 1.835-1.263 3.458-3.136 4.135a.8.8 0 0 1-.275.048M22.446 49.383c-.463 0-.917-.162-1.277-.46a1.9 1.9 0 0 1-.694-1.356c-.056-1.013.744-1.92 1.783-2.02a.808.808 0 0 1 .155 1.605c-.333.032-.428.4-.148.573.3.185.634-.02.925.296.577.625-.04 1.362-.744 1.362"/></g><defs><clipPath id="a"><path fill="#fff" d="M0 0h50v50H0z"/></clipPath></defs></svg>