<svg xmlns="http://www.w3.org/2000/svg" width="32" height="32" fill="none"><path fill="#07ccec" d="M29 2h-2.5v-.5C26.5.673 25.827 0 25 0s-1.5.673-1.5 1.5V2h-15v-.5C8.5.673 7.827 0 7 0S5.5.673 5.5 1.5V2H3c-1.103 0-2 .898-2 2v21c0 1.102.897 2 2 2h7a.5.5 0 1 0 0-1H3c-.551 0-1-.449-1-1V8h28v17c0 .551-.449 1-1 1h-5.5a.5.5 0 1 0 0 1H29c1.103 0 2-.898 2-2V4c0-1.102-.897-2-2-2m-4.5-.5a.5.5 0 0 1 1 0V4a.5.5 0 0 1-1 0zm-18 0a.5.5 0 0 1 1 0V4a.5.5 0 0 1-1 0z"/><path fill="#07ccec" d="M24.5 21c0-1.654-1.346-3-3-3s-3 1.346-3 3a3.004 3.004 0 0 0 2.5 2.958v2.792A4.254 4.254 0 0 1 16.75 31a4.254 4.254 0 0 1-4.25-4.25v-2.778c2.247-.25 4-2.16 4-4.472V15c0-1.103-.897-2-2-2a.5.5 0 0 0 0 1c.551 0 1 .449 1 1v4.5c0 1.93-1.57 3.5-3.5 3.5s-3.5-1.57-3.5-3.5V15c0-.551.449-1 1-1a.5.5 0 0 0 0-1c-1.103 0-2 .897-2 2v4.5a4.506 4.506 0 0 0 4 4.472v2.778A5.256 5.256 0 0 0 16.75 32 5.256 5.256 0 0 0 22 26.75v-2.792A3.004 3.004 0 0 0 24.5 21m-2.5.865c-.666.388-1.5-.1-1.5-.865 0-.551.449-1 1-1s1 .449 1 1c0 .37-.201.692-.5.865"/></svg>