<svg xmlns="http://www.w3.org/2000/svg" width="58" height="58" fill="none"><path fill="#E0E1E2" d="m55.758 44.037-4.49 4.382a13 13 0 0 1-6.087 3.347 13.07 13.07 0 0 1-6.955-.26 56.9 56.9 0 0 1-22.836-13.81A56.14 56.14 0 0 1 1.467 15.049a14 14 0 0 1-.364-1.4 12.8 12.8 0 0 0 .364 6.43 56.2 56.2 0 0 0 13.922 22.65 56.8 56.8 0 0 0 22.837 13.808 13.07 13.07 0 0 0 6.954.26 13 13 0 0 0 6.088-3.342l4.49-4.387a4.584 4.584 0 0 0 .638-5.803q-.28.418-.638.773"/><path fill="#1682FC" d="M19.33 16.206a.3.3 0 0 1-.204-.08l-1.83-1.707a.26.26 0 0 1-.083-.19c0-.071.03-.14.084-.19a.3.3 0 0 1 .206-.08c.078 0 .152.03.207.08l1.823 1.706c.054.051.084.12.084.19 0 .072-.03.14-.084.19a.3.3 0 0 1-.203.08m-4.425-4.13a.3.3 0 0 1-.204-.08l-2.596-2.422a.26.26 0 0 1 .019-.363.303.303 0 0 1 .389-.018l2.595 2.423c.054.05.084.119.084.19s-.03.14-.084.19a.28.28 0 0 1-.203.08m-5.193-4.85a.3.3 0 0 1-.203-.075L6.907 4.724a.26.26 0 0 1-.084-.19c0-.072.03-.14.084-.19a.3.3 0 0 1 .207-.08c.077 0 .151.029.206.08l2.596 2.422c.054.051.085.12.085.193 0 .072-.03.14-.085.192a.32.32 0 0 1-.204.075M53.482 51.176a.2.2 0 0 1-.098-.021.24.24 0 0 1-.082-.065l-2.29-2.612a.3.3 0 0 1-.073-.205c0-.077.026-.15.074-.205a.24.24 0 0 1 .181-.085c.068 0 .134.03.182.085l2.285 2.612a.3.3 0 0 1 .074.205c0 .077-.026.15-.074.205a.25.25 0 0 1-.082.064.2.2 0 0 1-.097.022m-4.575-5.224a.26.26 0 0 1-.18-.086l-2.284-2.612a.32.32 0 0 1-.075-.208.32.32 0 0 1 .075-.208.24.24 0 0 1 .179-.084.24.24 0 0 1 .18.084l2.284 2.618a.3.3 0 0 1 .058.093.32.32 0 0 1-.058.317.25.25 0 0 1-.179.086m-4.57-5.23a.2.2 0 0 1-.098-.02.24.24 0 0 1-.081-.066l-2.29-2.612a.3.3 0 0 1-.074-.205c0-.077.026-.15.074-.205a.24.24 0 0 1 .181-.085c.068 0 .134.03.182.085l2.285 2.612a.3.3 0 0 1 .074.205c0 .077-.026.15-.074.206a.3.3 0 0 1-.082.064.2.2 0 0 1-.097.022"/><path fill="#E0E1E2" d="M42.22 25.55c-6.395 0-11.652-4.839-12.303-11.05q-.066.647-.064 1.299c0 6.82 5.536 12.348 12.367 12.348S54.588 22.62 54.588 15.8q0-.652-.07-1.299c-.65 6.211-5.908 11.05-12.298 11.05"/><path fill="#2E3A58" d="M41.376 29.853c-3.059.002-6.024-1.125-8.39-3.19-2.365-2.064-3.986-4.938-4.584-8.131a14.88 14.88 0 0 1 1.303-9.382c1.441-2.872 3.774-5.124 6.6-6.371a12.47 12.47 0 0 1 8.897-.468c2.928.945 5.457 2.94 7.157 5.648s2.465 5.959 2.165 9.2-1.646 6.27-3.809 8.573a13.1 13.1 0 0 1-4.282 3.056 12.4 12.4 0 0 1-5.057 1.065m0-26.528c-2.708 0-5.332 1-7.424 2.83s-3.525 4.375-4.053 7.203a13.17 13.17 0 0 0 1.16 8.304c1.277 2.541 3.342 4.533 5.845 5.636a11.04 11.04 0 0 0 7.877.41c2.59-.838 4.829-2.606 6.333-5.003s2.18-5.276 1.914-8.144c-.266-2.87-1.458-5.551-3.373-7.589a11.6 11.6 0 0 0-3.797-2.706 11 11 0 0 0-4.482-.941"/><path fill="#1682FC" d="M41.794 25.588c-1.239 0-2.467-.215-3.626-.635a.28.28 0 0 1-.16-.144.27.27 0 0 1-.008-.21.27.27 0 0 1 .15-.15.3.3 0 0 1 .218-.006 10 10 0 0 0 3.426.6.3.3 0 0 1 .2.08.27.27 0 0 1 .084.193.26.26 0 0 1-.083.193.28.28 0 0 1-.201.08m1.263-.075a.3.3 0 0 1-.189-.07.26.26 0 0 1-.09-.173.26.26 0 0 1 .056-.198.3.3 0 0 1 .186-.104 9.9 9.9 0 0 0 3.315-1.014.3.3 0 0 1 .21-.011.28.28 0 0 1 .16.13.26.26 0 0 1 .025.2.27.27 0 0 1-.126.16 10.4 10.4 0 0 1-3.51 1.075zM35.2 23.188a.3.3 0 0 1-.19-.066 9.9 9.9 0 0 1-2.273-2.779.26.26 0 0 1 .031-.297.295.295 0 0 1 .3-.087c.073.021.134.069.17.132a9.4 9.4 0 0 0 2.152 2.623.27.27 0 0 1 .026.383.29.29 0 0 1-.216.09m14.077-.858a.3.3 0 0 1-.152-.046.3.3 0 0 1-.104-.116.27.27 0 0 1 .04-.291 9.1 9.1 0 0 0 1.79-2.86.28.28 0 0 1 .148-.136.3.3 0 0 1 .206-.003.28.28 0 0 1 .154.13c.033.06.041.13.023.196a9.8 9.8 0 0 1-1.895 3.03.271.271 0 0 1-.21.096m-17.36-5.118a.3.3 0 0 1-.19-.067.27.27 0 0 1-.095-.17 10 10 0 0 1-.073-1.196 9.4 9.4 0 0 1 .289-2.33.27.27 0 0 1 .128-.168.289.289 0 0 1 .391.092c.039.062.051.137.034.208a8.8 8.8 0 0 0-.206 3.328.26.26 0 0 1-.056.202.28.28 0 0 1-.191.1zm19.828-1.21a.3.3 0 0 1-.2-.08.27.27 0 0 1-.084-.193 8.9 8.9 0 0 0-.647-3.278.26.26 0 0 1 .007-.206.28.28 0 0 1 .156-.142.3.3 0 0 1 .309.066.3.3 0 0 1 .06.09 9.4 9.4 0 0 1 .683 3.47.26.26 0 0 1-.083.193.28.28 0 0 1-.201.08M33.59 10.65a.3.3 0 0 1-.158-.046.27.27 0 0 1-.12-.174.26.26 0 0 1 .046-.204 10.1 10.1 0 0 1 2.6-2.501.294.294 0 0 1 .395.065.263.263 0 0 1-.074.378 9.5 9.5 0 0 0-2.452 2.366.304.304 0 0 1-.237.116m15.618-.954a.3.3 0 0 1-.21-.09 9.7 9.7 0 0 0-2.747-2.048.28.28 0 0 1-.142-.16.26.26 0 0 1 .021-.208.3.3 0 0 1 .168-.133.3.3 0 0 1 .216.017 10.2 10.2 0 0 1 2.905 2.169.27.27 0 0 1-.021.388.3.3 0 0 1-.19.065m-9.83-2.9a.3.3 0 0 1-.173-.058.27.27 0 0 1-.106-.254.26.26 0 0 1 .11-.178.3.3 0 0 1 .101-.044 10.8 10.8 0 0 1 3.678-.227c.07.013.133.05.176.106a.264.264 0 0 1-.043.368.3.3 0 0 1-.196.066 11 11 0 0 0-1.131-.06c-.791-.002-1.58.09-2.347.272zM43.784 14.214v-3.979h-3.98v3.979h-3.98v3.979h3.98v3.983h3.98v-3.983h3.98v-3.98z"/><path fill="#2E3A58" d="M42.22 58c-1.424 0-2.839-.221-4.195-.655A57.716 57.716 0 0 1 .654 19.975a13.76 13.76 0 0 1 3.3-13.847l4.438-4.509a5.44 5.44 0 0 1 7.713-.03l5.768 5.773a5.43 5.43 0 0 1 0 7.677l-2.477 2.478a3.06 3.06 0 0 0-.691 3.255c2.01 5.23 4.204 8.926 6.9 11.622s6.393 4.89 11.628 6.9a3.06 3.06 0 0 0 3.25-.685l2.478-2.483a5.44 5.44 0 0 1 7.682 0l5.768 5.773a5.433 5.433 0 0 1-.03 7.708l-4.504 4.438A13.77 13.77 0 0 1 42.22 58m-3.727-2.107a12.24 12.24 0 0 0 12.313-2.935l4.509-4.438a3.91 3.91 0 0 0 .02-5.544l-5.768-5.773a3.915 3.915 0 0 0-5.53 0l-2.478 2.482a4.57 4.57 0 0 1-4.874 1.031c-5.438-2.092-9.302-4.392-12.156-7.245-2.854-2.854-5.154-6.713-7.246-12.156a4.57 4.57 0 0 1 1.036-4.875l2.478-2.477a3.91 3.91 0 0 0 0-5.525l-5.768-5.773a3.9 3.9 0 0 0-2.762-1.142h-.016A3.87 3.87 0 0 0 9.48 2.69L5.041 7.194a12.24 12.24 0 0 0-2.935 12.313 56.14 56.14 0 0 0 36.387 36.386"/></svg>