<svg xmlns="http://www.w3.org/2000/svg" width="58" height="66" fill="none"><path fill="#E0E1E2" d="M31.339 62.805S4.22 56.272 3.177 11.18c-1.457.92-2.34 1.724-2.34 2.308C1.865 58.627 29 65.158 29 65.158s6.757-1.635 13.665-9.193c-6.015 5.554-11.325 6.84-11.325 6.84"/><path fill="#E0E1E2" d="M28.977 58.61a23 23 0 0 1-2.016-.989c-2.792-1.533-5.4-3.628-7.757-6.222-3.328-3.673-6.03-8.25-8.03-13.612-2.323-6.234-3.702-13.545-4.099-21.761 1.195-.702 3.35-1.825 7.148-3.499 4.384-1.931 9.242-3.835 12.542-5.093a6.27 6.27 0 0 1 4.473-.006c3.3 1.253 8.153 3.145 12.537 5.071 3.741 1.646 5.891 2.763 7.098 3.46-.576 8.249-2.061 15.583-4.423 21.839-2.044 5.39-4.741 9.99-8.02 13.668-2.306 2.59-4.846 4.673-7.544 6.189-.731.41-1.379.724-1.91.955"/><path fill="#1682FC" d="M39.302 23.708a.844.844 0 0 1 .838.842v6.908a.85.85 0 0 1-.246.595.84.84 0 0 1-.592.247h-6.031v6.065a.85.85 0 0 1-.245.596.84.84 0 0 1-.593.246h-6.868a.84.84 0 0 1-.593-.246.85.85 0 0 1-.245-.596V32.3h-6.031a.84.84 0 0 1-.592-.247.85.85 0 0 1-.246-.595V24.55c0-.224.089-.438.246-.596a.84.84 0 0 1 .592-.247h6.031v-6.065a.835.835 0 0 1 .838-.842h6.868a.844.844 0 0 1 .838.842v6.065"/><path fill="#2E3A58" d="M28.999 66a.8.8 0 0 1-.195-.023c-.073-.016-1.821-.449-4.44-1.797-2.396-1.23-6.014-3.504-9.666-7.35-4.088-4.302-7.388-9.66-9.806-15.921C1.882 33.12.234 23.899 0 13.51v-.022c0-1.123 1.139-2.69 9.393-6.48C14.323 4.743 20.22 2.418 24.297.868a13.23 13.23 0 0 1 9.404-.011c4.093 1.556 10.013 3.88 14.949 6.144 2.748 1.257 4.903 2.37 6.405 3.296 2.105 1.303 2.988 2.269 2.943 3.229-.458 10.434-2.24 19.677-5.3 27.472-2.456 6.267-5.74 11.619-9.755 15.904-1.982 2.117-5.227 5.099-9.437 7.306-2.547 1.33-4.239 1.752-4.312 1.768A.8.8 0 0 1 29 66M1.675 13.516c.235 10.142 1.832 19.127 4.747 26.702 2.323 6.048 5.489 11.215 9.41 15.365 1.92 2.033 5.075 4.908 9.202 7.053 1.988 1.028 3.451 1.5 3.965 1.651.497-.146 1.91-.606 3.825-1.623 2.212-1.168 5.562-3.33 8.985-7.008 3.848-4.133 7.003-9.305 9.365-15.365 2.965-7.592 4.697-16.605 5.149-26.803-.04-.101-.363-.702-2.547-1.994-1.49-.887-3.59-1.949-6.226-3.145-4.83-2.195-10.52-4.425-14.441-5.913a11.55 11.55 0 0 0-8.22.011c-3.92 1.488-9.61 3.729-14.435 5.925-2.636 1.202-4.73 2.263-6.227 3.15-2.189 1.297-2.513 1.898-2.552 1.994"/><path fill="#1682FC" d="M28.977 58.89a.24.24 0 0 1-.107-.022 24 24 0 0 1-1.535-.724.28.28 0 0 1-.15-.274.28.28 0 0 1 .302-.257.3.3 0 0 1 .105.03c.463.242.932.461 1.385.658a19 19 0 0 0 1.379-.674.27.27 0 0 1 .374.112.283.283 0 0 1-.112.382 21 21 0 0 1-1.53.747.4.4 0 0 1-.111.022M24.783 56.571a.26.26 0 0 1-.157-.05 31 31 0 0 1-2.513-1.91.27.27 0 0 1-.086-.298.285.285 0 0 1 .45-.134 28 28 0 0 0 2.462 1.875.28.28 0 0 1 .073.394.27.27 0 0 1-.23.123m-4.77-4.032a.28.28 0 0 1-.2-.084 33.11 33.11 0 0 1-2.094-2.359.282.282 0 0 1 .35-.424.3.3 0 0 1 .085.07c.408.5.827 1 1.257 1.472.262.286.53.573.798.848a.28.28 0 0 1-.005.399.25.25 0 0 1-.19.078m-3.942-4.852a.27.27 0 0 1-.229-.123 40 40 0 0 1-1.67-2.673.281.281 0 0 1 .312-.433.28.28 0 0 1 .169.152c.525.91 1.078 1.797 1.647 2.64a.281.281 0 0 1-.229.437m-3.116-5.43a.28.28 0 0 1-.251-.163 48 48 0 0 1-1.273-2.88.276.276 0 0 1 .15-.366.283.283 0 0 1 .37.152c.39.977.814 1.931 1.256 2.852a.28.28 0 0 1-.252.405M10.6 36.445a.28.28 0 0 1-.263-.186 59 59 0 0 1-.921-3.015.28.28 0 0 1 .19-.349.29.29 0 0 1 .346.197c.28 1.016.592 2.016.916 2.982a.28.28 0 0 1-.173.36.3.3 0 0 1-.095.01m-1.681-6.037a.28.28 0 0 1-.274-.22A72 72 0 0 1 8.02 27.1a.283.283 0 0 1 .22-.353.28.28 0 0 1 .295.145q.029.053.032.113c.19 1.033.397 2.066.62 3.06a.277.277 0 0 1-.207.337zM7.8 24.236a.273.273 0 0 1-.274-.241 77 77 0 0 1-.374-3.128.28.28 0 0 1 .136-.3.278.278 0 0 1 .417.244c.106 1.044.229 2.089.374 3.105a.287.287 0 0 1-.24.314zM7.17 17.986a.28.28 0 0 1-.28-.259c-.038-.561-.066-1.128-.094-1.69a.28.28 0 0 1 .134-.258c.435-.247.932-.522 1.485-.809a.27.27 0 0 1 .374.118.28.28 0 0 1-.117.376 36 36 0 0 0-1.312.72c.028.499.056 1.004.09 1.504a.28.28 0 0 1-.263.298zM11.593 13.999a.29.29 0 0 1-.257-.163.28.28 0 0 1 .134-.37c.815-.383 1.703-.787 2.641-1.197l.464-.202a.28.28 0 0 1 .368.146.29.29 0 0 1-.145.37l-.463.197c-.933.416-1.815.814-2.625 1.19a.23.23 0 0 1-.117.029m34.762-.05a.3.3 0 0 1-.117-.029c-.799-.37-1.664-.764-2.575-1.162l-.52-.225a.28.28 0 0 1-.144-.37.28.28 0 0 1 .261-.17.3.3 0 0 1 .107.023l.52.225c.916.404 1.787.797 2.585 1.168a.28.28 0 0 1 .161.27.3.3 0 0 1-.027.106.28.28 0 0 1-.251.163m-28.547-2.68a.28.28 0 0 1-.257-.168.294.294 0 0 1 .15-.37c1-.416 2.061-.849 3.15-1.287a.28.28 0 0 1 .363.158.28.28 0 0 1-.156.365c-1.089.438-2.144.87-3.138 1.286a.4.4 0 0 1-.112.017m22.32-.044a.4.4 0 0 1-.106-.017c-1-.416-2.055-.848-3.144-1.28a.28.28 0 0 1-.156-.366.28.28 0 0 1 .363-.157c1.089.432 2.15.865 3.15 1.28a.275.275 0 0 1 .15.365.27.27 0 0 1-.257.175M24.113 8.737a.28.28 0 0 1-.28-.23.28.28 0 0 1 .18-.315l2.652-1.022c.184-.067.363-.13.547-.18a.28.28 0 0 1 .346.191.28.28 0 0 1-.19.348 10 10 0 0 0-.502.169c-.888.337-1.782.68-2.653 1.022a.3.3 0 0 1-.1.017m9.71-.034a.2.2 0 0 1-.1-.022l-2.585-.989a5 5 0 0 0-.57-.185.28.28 0 0 1-.195-.343.27.27 0 0 1 .34-.196q.319.085.62.196l2.591.994a.28.28 0 0 1 .18.316.28.28 0 0 1-.28.23M50.739 17.918h-.023a.28.28 0 0 1-.244-.194.3.3 0 0 1-.013-.109q.067-.741.118-1.5c-.386-.218-.827-.46-1.307-.712a.281.281 0 0 1 .257-.495q.831.43 1.485.81a.28.28 0 0 1 .134.263c-.039.562-.078 1.129-.128 1.685a.276.276 0 0 1-.28.252M33.522 56.234a.3.3 0 0 1-.229-.112.28.28 0 0 1 .067-.393 31 31 0 0 0 2.742-2.274.267.267 0 0 1 .391.016.276.276 0 0 1-.011.393 30 30 0 0 1-2.798 2.32.3.3 0 0 1-.162.05m5.26-4.885a.28.28 0 0 1-.184-.073.28.28 0 0 1-.027-.394 36 36 0 0 0 2.205-2.819.279.279 0 0 1 .453.326 37 37 0 0 1-2.234 2.858.28.28 0 0 1-.212.102m4.167-5.874a.3.3 0 0 1-.14-.034.287.287 0 0 1-.1-.388 45 45 0 0 0 1.68-3.161.28.28 0 0 1 .27-.178.28.28 0 0 1 .257.196.28.28 0 0 1-.024.223 45 45 0 0 1-1.703 3.207.28.28 0 0 1-.24.135m3.144-6.48a.4.4 0 0 1-.107-.023.27.27 0 0 1-.173-.258q0-.056.023-.107l.351-.91c.302-.803.592-1.629.866-2.465a.286.286 0 0 1 .357-.18.28.28 0 0 1 .174.354c-.274.842-.57 1.684-.877 2.487-.112.31-.235.618-.358.921a.27.27 0 0 1-.256.18m2.25-6.858h-.073a.28.28 0 0 1-.195-.342 70 70 0 0 0 .832-3.499.28.28 0 0 1 .226-.216.3.3 0 0 1 .109.003.274.274 0 0 1 .212.331 71 71 0 0 1-.843 3.521.275.275 0 0 1-.268.202m1.508-7.053h-.045a.27.27 0 0 1-.228-.21.3.3 0 0 1 0-.11c.189-1.162.362-2.359.513-3.56a.28.28 0 0 1 .307-.248.28.28 0 0 1 .246.315 86 86 0 0 1-.52 3.583.276.276 0 0 1-.273.23"/></svg>